HIERARCHY
ROOT Hips
{
	OFFSET 0.000000 8.830580 0.000000
	CHANNELS 6 Xposition Yposition Zposition Zrotation Yrotation Xrotation 
	JOINT Spine
	{
		OFFSET 0.000000 0.010000 0.000000
		CHANNELS 3 Zrotation Yrotation Xrotation
		JOINT Spine1
		{
			OFFSET 0.000000 2.459130 0.000000
			CHANNELS 3 Zrotation Yrotation Xrotation
			JOINT Neck
			{
				OFFSET 0.000000 2.484630 0.000000
				CHANNELS 3 Zrotation Yrotation Xrotation
				JOINT Head_virtual
				{
					OFFSET 0.000000 0.000000 0.000000
					CHANNELS 3 Zrotation Yrotation Xrotation
					JOINT Head
					{
						OFFSET 0.000000 0.927525 0.000000
						CHANNELS 3 Zrotation Yrotation Xrotation
						End Site
						{
							OFFSET 0.000000 0.000000 0.000000
						}
					}
				}
				JOINT LeftUpArm_virtual
				{
					OFFSET 0.000000 0.000000 0.000000
					CHANNELS 3 Zrotation Yrotation Xrotation
					JOINT LeftUpArm
					{
						OFFSET 1.248820 0.000000 0.000000
						CHANNELS 3 Zrotation Yrotation Xrotation
						JOINT LeftForeArm
						{
							OFFSET 2.597580 0.000000 0.000000
							CHANNELS 3 Zrotation Yrotation Xrotation
							JOINT LeftHand
							{
								OFFSET 2.455420 0.000000 0.000000
								CHANNELS 3 Zrotation Yrotation Xrotation
								End Site
								{
									OFFSET 0.000000 0.000000 0.000000
								}
							}
						}
					}
				}
				JOINT RightUpArm_virtual
				{
					OFFSET -0.000000 -0.000000 -0.000000
					CHANNELS 3 Zrotation Yrotation Xrotation
					JOINT RightUpArm
					{
						OFFSET -1.248820 -0.000000 -0.000000
						CHANNELS 3 Zrotation Yrotation Xrotation
						JOINT RightForeArm
						{
							OFFSET -2.597580 -0.000000 -0.000000
							CHANNELS 3 Zrotation Yrotation Xrotation
							JOINT RightHand
							{
								OFFSET -2.455420 -0.000000 -0.000000
								CHANNELS 3 Zrotation Yrotation Xrotation
								End Site
								{
									OFFSET 0.000000 0.000000 0.000000
								}
							}
						}
					}
				}
			}
		}
	}
	JOINT LeftUpLeg
	{
		OFFSET 1.271939 0.000000 0.000000
		CHANNELS 3 Zrotation Yrotation Xrotation
		JOINT LeftLowLeg
		{
			OFFSET 0.000000 -4.342910 0.000000
			CHANNELS 3 Zrotation Yrotation Xrotation
			JOINT LeftFoot
			{
				OFFSET 0.000000 -4.487670 0.000000
				CHANNELS 3 Zrotation Yrotation Xrotation
				JOINT LeftToeBase
				{
					OFFSET 0.000000 0.000000 1.515070
					CHANNELS 3 Zrotation Yrotation Xrotation
					End Site
					{
						OFFSET 0.000000 0.000000 0.000000
					}
				}
			}
		}
	}
	JOINT RightUpLeg
	{
		OFFSET -1.271939 0.000000 0.000000
		CHANNELS 3 Zrotation Yrotation Xrotation
		JOINT RightLowLeg
		{
			OFFSET 0.000000 -4.342910 0.000000
			CHANNELS 3 Zrotation Yrotation Xrotation
			JOINT RightFoot
			{
				OFFSET 0.000000 -4.487670 0.000000
				CHANNELS 3 Zrotation Yrotation Xrotation
				JOINT RightToeBase
				{
					OFFSET 0.000000 0.000000 1.515070
					CHANNELS 3 Zrotation Yrotation Xrotation
					End Site
					{
						OFFSET 0.000000 0.000000 0.000000
					}
				}
			}
		}
	}
}
MOTION
Frames: 10
Frame Time: 0.041667
-18.255595 8.916550 42.795849 8.677359 76.837279 18.148014 5.312296 2.530454 -9.838028 -9.795061 6.157680 7.836836 0.000000 0.000000 0.000000 -30.927231 43.806698 -16.384146 -15.402386 -26.540920 -78.804077 -23.941299 1.529090 4.710999 -39.468300 -5.737210 2.079760 -180.000000 -57.857002 180.000000 38.813999 -4.121580 17.659901 23.970200 -5.300320 -0.269989 50.002800 -6.882280 -2.591003 0.000000 30.121901 0.000000 -1.387430 -6.085810 -20.428699 0.041451 -9.609241 -25.804673 0.000000 0.000000 30.103600 -29.836315 2.848368 -7.458066 0.000000 0.000000 -20.852750 -4.982780 28.702867 -21.379775 0.000000 0.000000 27.201401 28.356919 1.523237 -5.653805 0.000000 0.000000 -17.476730 
-18.211130 8.919140 42.769379 9.419750 74.639189 18.363874 5.114078 2.117014 -9.732638 -9.906777 5.968498 8.354188 0.000000 0.000000 0.000000 -31.876591 44.689111 -16.305389 -15.314785 -26.168478 -79.228509 -23.924400 1.432960 5.141998 -39.479000 -5.701720 1.695410 -180.000000 -57.810997 180.000000 39.414902 -4.223080 16.775999 24.741501 -4.910470 -0.033997 49.056198 -5.238580 -2.377014 0.000000 30.790400 0.000000 -1.442870 -5.635530 -19.948099 -0.365192 -11.155613 -24.145177 0.000000 0.000000 27.337700 -28.994165 5.427776 -6.977540 0.000000 0.000000 -20.177160 -5.862166 30.208505 -21.370010 0.000000 0.000000 27.805901 28.550212 2.190969 -5.711789 0.000000 0.000000 -17.851780 
-18.168265 8.914737 42.744370 9.543914 72.585317 17.862276 4.802549 1.541951 -9.541207 -9.591626 5.695381 8.746874 0.000000 0.000000 0.000000 -32.482223 45.451742 -15.936284 -14.925585 -25.819900 -79.575953 -23.870701 1.496990 5.445007 -39.760799 -5.747560 1.539820 180.000000 -57.857002 -180.000000 38.895302 -5.413040 18.356300 25.326500 -4.672530 -0.467987 48.271801 -3.972180 -1.950012 0.000000 31.338699 0.000000 -1.407120 -5.198350 -18.721701 -1.012961 -11.813297 -22.463763 0.000000 0.000000 26.166500 -27.338844 7.839799 -6.933015 0.000000 0.000000 -21.108370 -6.518896 31.799583 -21.556082 0.000000 0.000000 29.005501 28.690563 2.776890 -5.873221 0.000000 0.000000 -18.118650 
-18.129926 8.902025 42.721209 10.196532 70.769462 17.935389 3.975959 0.759042 -9.281352 -8.774713 5.416552 8.768520 0.000000 0.000000 0.000000 -32.261107 45.984274 -15.160227 -14.494309 -25.375297 -79.657714 -24.072500 1.578640 5.548004 -39.848999 -5.954140 1.802720 180.000000 -57.764999 180.000000 39.656399 -5.355940 18.871599 25.733101 -4.779750 -1.014008 47.669300 -2.760120 -1.502014 0.000000 31.795900 0.000000 -1.386180 -4.767700 -17.070801 -2.236638 -10.532894 -21.032461 0.000000 0.000000 25.445400 -26.132573 8.335799 -7.325913 0.000000 0.000000 -20.582360 -7.241014 32.894098 -22.232900 0.000000 0.000000 31.085699 28.249576 3.397186 -6.249926 0.000000 0.000000 -18.197750 
-18.097044 8.887964 42.695504 11.856828 69.157673 19.022561 2.787765 -0.144235 -8.996328 -7.983957 5.135701 8.664750 0.000000 0.000000 0.000000 -31.460331 46.233091 -14.276288 -14.076293 -24.931348 -79.493299 -24.198000 1.679830 5.385010 -39.933201 -6.186160 2.264980 180.000000 -57.749001 -180.000000 39.880699 -5.873920 19.724701 26.170900 -5.085220 -1.813995 47.166599 -1.843920 -0.756012 0.000000 32.403198 0.000000 -1.433980 -4.362280 -15.686800 -3.775381 -8.509444 -19.801639 0.000000 0.000000 24.472799 -24.806649 8.530060 -6.911420 0.000000 0.000000 -20.471400 -8.260322 33.324553 -23.253102 0.000000 0.000000 33.728001 27.907282 4.426271 -6.474693 0.000000 0.000000 -18.676550 
-18.065171 8.871088 42.663345 15.062785 67.544808 21.737455 1.133999 -1.017063 -8.841174 -7.532741 4.988705 8.405771 0.000000 0.000000 0.000000 -29.676232 46.149399 -13.107332 -13.614382 -24.462689 -79.226449 -23.935900 1.653860 5.488007 -40.321400 -6.549850 2.701440 180.000000 -57.585999 -180.000000 39.611099 -6.364830 20.347500 26.583799 -5.531620 -2.217010 46.964802 -0.909700 -0.397003 0.000000 33.061100 0.000000 -1.570580 -3.980540 -14.449400 -5.978304 -5.521975 -18.632225 0.000000 0.000000 23.028999 -23.619976 7.504689 -5.703716 0.000000 0.000000 -20.995760 -9.703989 31.201300 -24.826745 0.000000 0.000000 37.335899 26.587712 7.002275 -6.059968 0.000000 0.000000 -19.629920 
-18.036166 8.848318 42.629735 18.592498 66.049600 24.914750 -0.706762 -1.855659 -8.770836 -7.146163 4.911075 8.022325 0.000000 0.000000 0.000000 -26.429790 45.339695 -11.518277 -13.286764 -24.076316 -78.709696 -23.666000 1.501120 5.742004 -40.496700 -7.296260 3.126070 180.000000 -57.240997 -180.000000 40.227901 -6.509880 20.341900 26.554300 -6.059580 -2.605011 47.396500 -0.418660 -0.238007 0.000000 33.858101 0.000000 -1.705380 -3.625300 -13.709800 -8.320070 -2.702683 -17.825792 0.000000 0.000000 21.798000 -22.560488 6.077606 -4.448151 0.000000 0.000000 -21.295580 -11.559119 29.774249 -26.995155 0.000000 0.000000 41.608700 24.574294 8.094273 -6.260211 0.000000 0.000000 -20.524950 
-18.006518 8.832175 42.588821 22.090028 64.978381 28.050365 -1.898818 -2.611653 -8.630252 -7.850740 4.453737 7.533861 0.000000 0.000000 0.000000 -22.841227 44.398777 -9.835843 -12.462108 -23.798153 -78.567771 -23.288500 1.495560 5.971008 -40.221802 -8.133640 3.470000 180.000000 -56.740997 180.000000 40.334702 -7.356860 21.737900 26.872299 -6.300950 -2.593994 47.866600 -0.195291 -0.217987 0.000000 34.726200 0.000000 -1.914770 -3.359070 -13.353700 -9.968694 -4.744529 -16.868522 0.000000 0.000000 20.206800 -22.885306 7.960903 -4.413921 0.000000 0.000000 -21.287460 -13.474765 28.765893 -28.728720 0.000000 0.000000 45.128502 23.833047 8.919599 -6.461771 0.000000 0.000000 -21.043990 
-17.977851 8.818133 42.558422 23.773914 64.592931 29.254538 -2.492411 -3.199280 -8.421691 -8.219124 4.052522 7.431004 0.000000 0.000000 0.000000 -18.401104 42.770377 -7.889445 -11.548333 -23.719866 -78.365039 -22.823799 1.213880 6.289001 -40.246300 -9.034780 3.906260 -180.000000 -56.099998 180.000000 41.556198 -8.596920 21.076000 27.076099 -6.636680 -2.164001 48.436001 0.126958 -0.644012 0.000000 35.435799 0.000000 -2.198180 -3.136040 -13.490900 -10.801862 -6.057204 -16.137736 0.000000 0.000000 19.603901 -23.596466 8.689013 -4.730717 0.000000 0.000000 -21.042270 -14.124241 26.980397 -29.236765 0.000000 0.000000 47.079300 23.754230 10.499608 -5.960453 0.000000 0.000000 -22.182650 
-17.949071 8.807068 42.537267 24.449622 64.644095 29.409996 -2.697962 -3.596207 -8.208295 -8.521571 3.753202 7.587779 0.000000 0.000000 0.000000 -12.944124 40.344716 -5.870498 -10.700584 -23.706312 -77.999602 -23.031700 0.708342 6.598999 -39.187500 -10.216700 3.938050 180.000000 -55.127998 -180.000000 42.544399 -10.786500 21.985600 27.102501 -6.929800 -2.161011 49.377602 0.013820 -1.450012 0.000000 35.452900 0.000000 -2.239040 -2.508910 -13.884800 -11.350970 -5.212802 -15.511157 0.000000 0.000000 19.509600 -23.496436 7.655789 -4.521082 0.000000 0.000000 -21.271590 -13.850892 23.442470 -29.004103 0.000000 0.000000 48.118099 24.599879 13.401365 -4.708488 0.000000 0.000000 -22.999760 
